Jump_normalized_pl10_filtered_grf
version=1
nRows=10
nColumns=37
inDegrees=yes
endheader
time		1_ground_force_vx		1_ground_force_vy		1_ground_force_vz		1_ground_force_px		1_ground_force_py		1_ground_force_pz		1_ground_torque_x		1_ground_torque_y		1_ground_torque_z		2_ground_force_vx		2_ground_force_vy		2_ground_force_vz		2_ground_force_px		2_ground_force_py		2_ground_force_pz		2_ground_torque_x		2_ground_torque_y		2_ground_torque_z		3_ground_force_vx		3_ground_force_vy		3_ground_force_vz		3_ground_force_px		3_ground_force_py		3_ground_force_pz		3_ground_torque_x		3_ground_torque_y		3_ground_torque_z		4_ground_force_vx		4_ground_force_vy		4_ground_force_vz		4_ground_force_px		4_ground_force_py		4_ground_force_pz		4_ground_torque_x		4_ground_torque_y		4_ground_torque_z		
0.122833		-0.000000		0.000000		0.000000		0.136890		0.000000		0.232777		0.000000		0.000000		-0.000000		0.000000		-0.000000		-0.000000		-0.137729		0.000000		0.252797		-0.000000		0.000000		-0.000000		19.863464		87.271314		167.172338		0.374551		1.310282		1.919804		-1.203805		-5.289002		-10.131329		-53.027851		248.350837		494.144971		-0.265675		1.309615		1.929891		-3.166992		14.832250		29.511900		
0.124626		-0.000000		0.000000		0.000000		0.136890		0.000000		0.232777		0.000000		0.000000		-0.000000		0.000000		0.000000		-0.000000		-0.137729		0.000000		0.252797		0.000000		0.000000		0.000000		19.977818		79.165502		154.819662		0.374556		1.310306		1.919792		-1.207895		-4.786515		-9.360715		-53.023342		240.696628		492.744281		-0.265664		1.309649		1.929807		-3.187057		14.467434		29.617216		
0.126419		-0.000000		0.000000		0.000000		0.136890		0.000000		0.232777		0.000000		0.000000		-0.000000		0.000000		0.000000		0.000000		-0.137729		0.000000		0.252797		0.000000		-0.000000		0.000000		20.110501		70.840485		141.884167		0.374560		1.310328		1.919773		-1.210583		-4.264385		-8.540988		-52.933549		233.059292		491.150745		-0.265649		1.309683		1.929714		-3.201348		14.095077		29.704116		
0.128212		-0.000000		0.000000		0.000000		0.136890		0.000000		0.232777		0.000000		0.000000		-0.000000		0.000000		0.000000		0.000000		-0.137729		0.000000		0.252797		0.000000		-0.000000		0.000000		20.268395		62.470250		128.438135		0.374562		1.310348		1.919749		-1.211207		-3.733214		-7.675411		-52.758147		225.461435		489.334962		-0.265632		1.309718		1.929616		-3.209724		13.716678		29.770378		
0.130005		-0.000000		0.000000		0.000000		0.136890		0.000000		0.232777		0.000000		0.000000		-0.000000		0.000000		0.000000		0.000000		-0.137729		0.000000		0.252797		0.000000		-0.000000		0.000000		20.458947		54.241331		114.627671		0.374566		1.310366		1.919719		-1.208872		-3.205003		-6.773099		-52.495514		217.911614		487.281416		-0.265613		1.309751		1.929510		-3.212002		13.333187		29.814910		
0.131798		-0.000000		0.000000		0.000000		0.136890		0.000000		0.232777		0.000000		0.000000		-0.000000		0.000000		0.000000		0.000000		-0.137729		0.000000		0.252797		0.000000		-0.000000		0.000000		20.682264		46.357487		100.641438		0.374576		1.310384		1.919676		-1.201358		-2.692920		-5.846231		-52.159668		210.426385		484.960155		-0.265596		1.309781		1.929390		-3.208925		12.945644		29.835328		
0.133591		-0.000000		0.000000		0.000000		0.136890		0.000000		0.232777		0.000000		0.000000		-0.000000		-0.000000		0.000000		0.000000		-0.137729		0.000000		0.252797		0.000000		-0.000000		0.000000		20.942774		38.974078		86.725572		0.374592		1.310402		1.919623		-1.186223		-2.207693		-4.912544		-51.758347		203.030914		482.357954		-0.265582		1.309808		1.929260		-3.200901		12.556060		29.830561		
0.135384		-0.000000		0.000000		0.000000		0.136890		0.000000		0.232777		0.000000		0.000000		-0.000000		-0.000000		0.000000		0.000000		-0.137729		0.000000		0.252797		0.000000		-0.000000		0.000000		21.236550		32.231206		73.149357		0.374615		1.310422		1.919560		-1.158731		-1.758862		-3.991731		-51.297487		195.743582		479.458401		-0.265572		1.309833		1.929121		-3.188172		12.165568		29.798657		
0.137177		-0.000000		0.000000		0.000000		0.136890		0.000000		0.232777		0.000000		0.000000		-0.000000		-0.000000		0.000000		0.000000		-0.137729		0.000000		0.252797		0.000000		-0.000000		0.000000		21.548215		26.219649		60.188882		0.374649		1.310446		1.919485		-1.111496		-1.352840		-3.105510		-50.800828		188.597320		476.247605		-0.265571		1.309854		1.928969		-3.172075		11.776256		29.737577		
0.138970		0.000000		-0.000000		-0.000000		0.136890		0.000000		0.232777		-0.000000		-0.000000		0.000000		-0.000000		0.000000		0.000000		-0.137729		0.000000		0.252797		0.000000		-0.000000		0.000000		21.860706		20.976289		48.095136		0.374693		1.310476		1.919397		-1.034549		-0.992808		-2.276349		-50.286571		181.629141		472.716528		-0.265579		1.309871		1.928805		-3.153602		11.390431		29.645286		
